<svg width="301.05248413085934px" height="322.4300109863281px" xmlns="http://www.w3.org/2000/svg" viewBox="99.47375793457033 -86.21500549316406 301.05248413085934 322.4300109863281" style="background: rgba(0, 0, 0, 0);" preserveAspectRatio="xMidYMid"><defs><filter id="editing-hole" x="-100%" y="-100%" width="300%" height="300%"><feFlood flood-color="#000000" result="black"></feFlood><feMorphology operator="dilate" radius="2" in="SourceGraphic" result="erode"></feMorphology><feGaussianBlur in="erode" stdDeviation="4" result="blur"></feGaussianBlur><feOffset in="blur" dx="2" dy="2" result="offset"></feOffset><feComposite operator="atop" in="offset" in2="black" result="merge"></feComposite><feComposite operator="in" in="merge" in2="SourceGraphic" result="inner-shadow"></feComposite></filter></defs><g filter="url(#editing-hole)"><g transform="translate(149.60063076019287, 142.55500030517578)"><path d="M24.21-49.31L24.21-49.31L24.21-49.31Q28.66-49.31 29.55-46.46L29.55-46.46L29.55-46.46Q29.90-44.86 29.10-43.34L29.10-43.34L29.10-43.34Q28.30-41.83 27.95-40.94L27.95-40.94L27.95-40.94Q27.59-40.05 27.41-39.52L27.41-39.52L27.41-39.52Q26.52-37.74 25.63-36.13L25.63-36.13L25.63-36.13Q15.49-15.84 14.95-10.32L14.95-10.32L14.95-10.32Q14.77-8.72 14.77-6.23L14.77-6.23L14.77-6.23Q14.77-3.74 16.20-2.14L16.20-2.14L16.20-2.14Q18.69 0.71 23.32-1.78L23.32-1.78L23.32-1.78Q27.95-4.27 36.22-11.75L36.22-11.75L36.22-11.75Q44.50-19.22 49.66-26.34L49.66-26.34L49.66-26.34Q50.37-27.23 51.26-26.79L51.26-26.79L51.26-26.79Q52.15-26.34 52.15-25.90L52.15-25.90L52.15-25.90Q52.15-25.45 51.80-24.92L51.80-24.92L51.80-24.92Q49.13-20.11 42.19-12.64L42.19-12.64L42.19-12.64Q30.79-0.36 23.14 2.49L23.14 2.49L23.14 2.49Q18.69 4.09 15.66 4.09L15.66 4.09L15.66 4.09Q8.54 4.09 6.23-2.67L6.23-2.67L6.23-2.67Q5.87-3.92 5.87-5.70L5.87-5.70L5.87-5.70Q5.87-11.93 11.57-24.56L11.57-24.56L11.57-24.56Q10.68-22.61 4.63-15.66L4.63-15.66L4.63-15.66Q3.03-13.88 2.14-15.66L2.14-15.66L2.14-15.66Q1.96-16.02 1.96-16.64L1.96-16.64L1.96-16.64Q1.96-17.27 2.67-18.16L2.67-18.16L2.67-18.16Q11.39-29.01 16.38-36.49L16.38-36.49L16.38-36.49Q16.02-37.38 16.73-38.80L16.73-38.80L16.73-38.80Q20.29-48.77 22.96-49.31L22.96-49.31L22.96-49.31Q23.50-49.31 24.21-49.31ZM38.27-72.98L38.27-72.98L36.85-67.28L36.85-67.28Q36.85-65.68 34.53-62.12L34.53-62.12L34.53-62.12Q32.22-58.56 30.97-58.56L30.97-58.56L30.97-58.56Q23.32-58.56 23.32-62.30L23.32-62.30L23.32-62.30Q23.32-63.01 30.97-68.89L30.97-68.89L34.00-71.20L34.00-71.20Q36.85-73.69 37.56-73.69L37.56-73.69L37.56-73.69Q38.27-73.69 38.27-72.98ZM55.54 1.42L55.54 1.42L55.54 1.42Q49.13 4.63 47.35 4.63L47.35 4.63L47.35 4.63Q45.57 4.63 45.57 4.09L45.57 4.09L45.57 4.09Q45.57 3.56 45.84 2.94L45.84 2.94L45.84 2.94Q46.10 2.31 48.33-3.74L48.33-3.74L48.33-3.74Q50.55-9.79 53.93-19.05L53.93-19.05L53.93-19.05Q57.32-28.30 59.81-34.53L59.81-34.53L59.81-34.53Q55.71-30.08 50.20-22.25L50.20-22.25L50.20-22.25Q49.31-21.00 47.79-21.54L47.79-21.54L47.79-21.54Q46.28-22.07 48.77-25.28L48.77-25.28L48.77-25.28Q54.65-32.40 63.55-45.75L63.55-45.75L63.55-45.75Q60.88-47.17 60.88-48.50L60.88-48.50L60.88-48.50Q60.88-49.84 61.23-50.55L61.23-50.55L61.23-50.55Q62.12-52.69 64.44-51.44L64.44-51.44L64.44-51.44Q65.50-51.09 65.86-51.09L65.86-51.09L65.86-51.09Q73.69-71.73 85.44-87.93L85.44-87.93L85.44-87.93Q91.85-97.01 98.79-101.19L98.79-101.19L98.79-101.19Q105.73-105.38 111.78-105.38L111.78-105.38L111.78-105.38Q116.06-105.38 119.97-103.33L119.97-103.33L119.97-103.33Q123.89-101.28 123.89-96.65L123.89-96.65L123.89-96.65Q123.89-87.75 108.58-70.84L108.58-70.84L108.58-70.84Q100.39-62.12 90.25-54.82L90.25-54.82L90.25-54.82Q80.10-47.53 72.27-44.14L72.27-44.14L72.27-44.14Q65.33-28.84 59.99-12.10L59.99-12.10L71.56-27.23L71.56-27.23Q71.38-28.84 71.38-30.62L71.38-30.62L71.38-30.62Q71.38-35.96 73.69-37.20L73.69-37.20L73.69-37.20Q74.94-37.74 75.29-35.07L75.29-35.07L76.01-32.57L76.01-32.57Q89.71-48.59 95.76-51.44L95.76-51.44L95.76-51.44Q98.61-52.87 100.93-52.87L100.93-52.87L100.93-52.87Q103.24-52.87 105.02-51.62L105.02-51.62L105.02-51.62Q106.80-50.37 106.80-48.95L106.80-48.95L106.80-48.95Q106.80-46.46 102.71-44.50L102.71-44.50L102.71-44.50Q83.13-35.07 76.90-28.48L76.90-28.48L76.90-28.48Q81.17-13.53 85.26-4.98L85.26-4.98L85.26-4.98Q89.36 3.56 98.17 14.24L98.17 14.24L98.17 14.24Q106.98 24.92 114.28 24.92L114.28 24.92L114.28 24.92Q120.33 24.92 119.26 19.58L119.26 19.58L119.26 19.58Q118.55 14.77 116.32 11.30L116.32 11.30L116.32 11.30Q114.10 7.83 115.88 7.83L115.88 7.83L115.88 7.83Q117.48 8.01 119.26 9.43L119.26 9.43L119.26 9.43Q120.33 10.68 121.75 13.79L121.75 13.79L121.75 13.79Q123.18 16.91 123.18 19.05L123.18 19.05L123.18 19.05Q123.00 24.03 118.37 26.88L118.37 26.88L118.37 26.88Q113.74 29.73 109.47 29.73L109.47 29.73L109.47 29.73Q101.10 29.73 93.09 21.45L93.09 21.45L93.09 21.45Q85.08 13.17 79.74 1.42L79.74 1.42L79.74 1.42Q74.40-10.32 72.27-22.61L72.27-22.61L72.27-22.61Q69.06-18.16 65.15-11.93L65.15-11.93L65.15-11.93Q57.14 0.36 55.54 1.42ZM113.74-86.51L113.74-86.51L113.74-86.51Q118.55-94.52 118.55-97.72L118.55-97.72L118.55-97.72Q118.55-100.93 115.88-100.93L115.88-100.93L115.88-100.93Q113.21-100.93 109.11-97.72L109.11-97.72L109.11-97.72Q97.72-89 89.89-77.88L89.89-77.88L89.89-77.88Q82.06-66.75 74.40-50.20L74.40-50.20L74.40-50.20Q90.96-57.85 104.49-73.34L104.49-73.34L104.49-73.34Q108.94-78.50 113.74-86.51ZM135.90-44.50L135.90-44.50L135.90-44.50Q133.32-42.36 126.47-33.38L126.47-33.38L126.47-33.38Q119.62-24.39 117.04-17.44L117.04-17.44L117.04-17.44Q114.45-10.50 114.45-6.05L114.45-6.05L114.45-6.05Q114.45-1.60 118.28-1.60L118.28-1.60L118.28-1.60Q122.11-1.60 129.05-7.12L129.05-7.12L129.05-7.12Q140.26-16.38 154.33-41.47L154.33-41.47L154.33-41.47Q155.04-42.72 156.91-42.72L156.91-42.72L156.91-42.72Q158.78-42.72 162.07-41.74L162.07-41.74L162.07-41.74Q165.36-40.76 165.36-39.16L165.36-39.16L165.36-39.16Q165.36-38.63 165.01-38.09L165.01-38.09L165.01-38.09Q157.53-25.99 155.57-10.68L155.57-10.68L155.57-10.68Q154.86-5.52 157.35-2.31L157.35-2.31L157.35-2.31Q159.67 0.89 166.79-3.03L166.79-3.03L166.79-3.03Q177.82-8.54 186.99-20.29L186.99-20.29L186.99-20.29Q196.16-32.04 198.29-41.47L198.29-41.47L198.29-41.47Q199.00-43.43 199.00-45.75L199.00-45.75L199.00-45.75Q199.00-55.71 193.31-57.85L193.31-57.85L193.31-57.85Q191.71-58.56 189.75-58.29L189.75-58.29L189.75-58.29Q187.79-58.03 187.43-58.47L187.43-58.47L187.43-58.47Q187.08-58.92 187.26-59.45L187.26-59.45L187.26-59.45Q187.61-61.05 194.55-61.05L194.55-61.05L194.55-61.05Q206.12-61.05 206.12-49.13L206.12-49.13L206.12-49.13Q206.12-37.20 192.60-20.47L192.60-20.47L192.60-20.47Q184.05-10.32 172.48-1.78L172.48-1.78L172.48-1.78Q166.07 2.67 159.13 2.67L159.13 2.67L159.13 2.67Q150.05 2.67 147.92-4.09L147.92-4.09L147.92-4.09Q146.67-7.30 146.67-14.24L146.67-14.24L146.67-14.24Q146.67-21.18 148.45-25.63L148.45-25.63L148.45-25.63Q143.65-16.02 137.95-9.43L137.95-9.43L137.95-9.43Q132.25-2.85 128.25-0.44L128.25-0.44L128.25-0.44Q124.24 1.96 120.15 1.96L120.15 1.96L120.15 1.96Q113.03 1.96 110.18-1.87L110.18-1.87L110.18-1.87Q107.33-5.70 107.33-10.15L107.33-10.15L107.33-10.15Q107.33-16.02 109.92-22.87L109.92-22.87L109.92-22.87Q112.50-29.73 115.08-33.73L115.08-33.73L115.08-33.73Q117.66-37.74 121.84-43.34L121.84-43.34L121.84-43.34Q126.02-48.95 127.27-49.48L127.27-49.48L127.27-49.48Q129.94-50.20 132.34-50.20L132.34-50.20L132.34-50.20Q134.75-50.20 136.53-49.48L136.53-49.48L136.53-49.48Q138.31-48.77 138.40-47.70L138.40-47.70L138.40-47.70Q138.48-46.64 135.90-44.50Z" fill="#e5fcff"></path></g></g><style>text {
  font-size: 64px;
  font-family: Arial Black;
  dominant-baseline: central;
  text-anchor: middle;
}</style></svg>